<svg width="41" height="33" viewBox="0 0 41 33" fill="none" xmlns="http://www.w3.org/2000/svg">
<path d="M0.0329995 12.1303C0.139899 11.6587 0.497168 11.2814 0.963123 11.1476L35.9326 1.1703C36.2864 1.06956 36.6523 1.27325 36.7499 1.62518C36.8474 1.97711 36.6395 2.34413 36.2857 2.44487L2.88198 11.9795L26.9689 16.9744C27.3274 17.0489 27.5546 17.3997 27.4764 17.758C27.3982 18.1163 27.0443 18.3464 26.6858 18.2719L2.23383 13.2004L10.5489 20.4076L21.1261 30.5153C21.2736 30.6572 21.4795 30.7221 21.6834 30.6911C21.8785 30.661 22.0491 30.5412 22.1439 30.3677L27.1735 22.0067L29.5198 17.9074C29.7022 17.5882 30.108 17.4743 30.4263 17.653C30.4654 17.6799 30.5015 17.7111 30.5336 17.7461L30.5463 17.7363L37.3245 22.963L33.2104 12.5578L13.085 13.0149C12.8388 13.035 12.603 12.9175 12.4729 12.7096C12.3427 12.5017 12.3395 12.2378 12.4646 12.0244C12.5897 11.811 12.8225 11.6832 13.069 11.6925L33.2946 11.2288L39.7057 0.327677C39.8934 0.0135199 40.2987 -0.0931429 40.6131 0.0888819C40.9275 0.270906 41.0332 0.673346 40.8497 0.990029L34.4032 11.9478L38.5646 22.4774C38.7786 23.0221 38.603 23.6457 38.1344 24.0054L38.1223 24.0148C37.864 24.2072 37.5447 24.2986 37.2254 24.2717C37.1985 24.275 37.1714 24.2764 37.1444 24.276L28.0555 23.0561L23.2929 31.0245C22.9963 31.5489 22.4737 31.9085 21.8785 31.9977C21.2682 32.0936 20.6506 31.9018 20.2071 31.4785L9.65114 21.3886L0.461554 13.425C0.0898323 13.1073 -0.0748203 12.6099 0.0329995 12.1303ZM34.69 22.6109L30.2918 19.2225L29.108 21.2955L28.795 21.8194L34.69 22.6109Z" fill="#F5E8D0"/>
</svg>
